<?xml version="1.0" encoding="UTF-8"?>
<mxfile host="app.diagrams.net" modified="2024-01-31T11:38:46.723Z" agent="Mozilla/5.0 (Windows NT 10.0; Win64; x64) AppleWebKit/537.36 (KHTML, like Gecko) Chrome/121.0.0.0 Safari/537.36 Edg/121.0.0.0" etag="LMQNEj_JTNb175z8nwn9" version="23.0.2" type="browser">
  <diagram name="第 1 页" id="uVkd4KvrKCw7aUiNvQXj">
    <mxGraphModel dx="1311" dy="915" grid="1" gridSize="10" guides="1" tooltips="1" connect="1" arrows="1" fold="1" page="1" pageScale="1" pageWidth="827" pageHeight="1169" math="0" shadow="0">
      <root>
        <mxCell id="0" />
        <mxCell id="1" parent="0" />
        <mxCell id="_YOE5mqV0CH9EQmjLfuh-642" value="" style="group" vertex="1" connectable="0" parent="1">
          <mxGeometry x="7" y="230" width="820" height="260" as="geometry" />
        </mxCell>
        <mxCell id="_YOE5mqV0CH9EQmjLfuh-383" value="&lt;font style=&quot;font-size: 20px;&quot; face=&quot;Times New Roman&quot;&gt;53&lt;/font&gt;" style="shape=partialRectangle;whiteSpace=wrap;html=1;top=0;bottom=0;fillColor=none;" vertex="1" parent="_YOE5mqV0CH9EQmjLfuh-642">
          <mxGeometry x="436.616684723727" y="104.94267257415363" width="35.53629469122427" height="35.17434978185138" as="geometry" />
        </mxCell>
        <mxCell id="_YOE5mqV0CH9EQmjLfuh-384" value="&lt;font style=&quot;font-size: 20px;&quot; face=&quot;Times New Roman&quot;&gt;59&lt;/font&gt;" style="shape=partialRectangle;whiteSpace=wrap;html=1;top=0;bottom=0;fillColor=none;" vertex="1" parent="_YOE5mqV0CH9EQmjLfuh-642">
          <mxGeometry x="481.03705308775744" y="104.94267257415363" width="35.53629469122427" height="35.17434978185138" as="geometry" />
        </mxCell>
        <mxCell id="_YOE5mqV0CH9EQmjLfuh-385" value="" style="shape=partialRectangle;whiteSpace=wrap;html=1;top=0;bottom=0;fillColor=none;" vertex="1" parent="_YOE5mqV0CH9EQmjLfuh-642">
          <mxGeometry x="526.3458288190684" y="104.94267257415363" width="35.53629469122427" height="35.17434978185138" as="geometry" />
        </mxCell>
        <mxCell id="_YOE5mqV0CH9EQmjLfuh-386" value="" style="shape=partialRectangle;whiteSpace=wrap;html=1;top=0;bottom=0;fillColor=none;" vertex="1" parent="_YOE5mqV0CH9EQmjLfuh-642">
          <mxGeometry x="569.877789815818" y="104.94267257415363" width="35.53629469122427" height="35.17434978185138" as="geometry" />
        </mxCell>
        <mxCell id="_YOE5mqV0CH9EQmjLfuh-387" value="" style="endArrow=none;html=1;rounded=0;exitX=0;exitY=0;exitDx=0;exitDy=0;entryX=1;entryY=0;entryDx=0;entryDy=0;" edge="1" parent="_YOE5mqV0CH9EQmjLfuh-642">
          <mxGeometry width="50" height="50" relative="1" as="geometry">
            <mxPoint x="427.732611050921" y="104.94267257415363" as="sourcePoint" />
            <mxPoint x="614.2981581798484" y="104.94267257415363" as="targetPoint" />
          </mxGeometry>
        </mxCell>
        <mxCell id="_YOE5mqV0CH9EQmjLfuh-388" value="" style="endArrow=none;html=1;rounded=0;exitX=0;exitY=1;exitDx=0;exitDy=0;" edge="1" parent="_YOE5mqV0CH9EQmjLfuh-642">
          <mxGeometry width="50" height="50" relative="1" as="geometry">
            <mxPoint x="427.732611050921" y="140.11702235600507" as="sourcePoint" />
            <mxPoint x="614.2981581798484" y="140.11702235600507" as="targetPoint" />
          </mxGeometry>
        </mxCell>
        <mxCell id="_YOE5mqV0CH9EQmjLfuh-389" value="" style="endArrow=none;html=1;rounded=0;" edge="1" parent="_YOE5mqV0CH9EQmjLfuh-642">
          <mxGeometry width="50" height="50" relative="1" as="geometry">
            <mxPoint x="427.732611050921" y="104.94267257415363" as="sourcePoint" />
            <mxPoint x="427.732611050921" y="140.50019128812437" as="targetPoint" />
          </mxGeometry>
        </mxCell>
        <mxCell id="_YOE5mqV0CH9EQmjLfuh-390" value="" style="endArrow=none;html=1;rounded=0;" edge="1" parent="_YOE5mqV0CH9EQmjLfuh-642">
          <mxGeometry width="50" height="50" relative="1" as="geometry">
            <mxPoint x="614.2981581798484" y="104.55575472655325" as="sourcePoint" />
            <mxPoint x="614.2981581798484" y="140.113273440524" as="targetPoint" />
          </mxGeometry>
        </mxCell>
        <mxCell id="_YOE5mqV0CH9EQmjLfuh-391" value="&lt;font style=&quot;font-size: 20px;&quot; face=&quot;Times New Roman&quot;&gt;68&lt;/font&gt;" style="shape=partialRectangle;whiteSpace=wrap;html=1;top=0;bottom=0;fillColor=none;" vertex="1" parent="_YOE5mqV0CH9EQmjLfuh-642">
          <mxGeometry x="642.3185265438786" y="105.90996719315451" width="35.53629469122427" height="35.17434978185138" as="geometry" />
        </mxCell>
        <mxCell id="_YOE5mqV0CH9EQmjLfuh-392" value="&lt;font style=&quot;font-size: 20px;&quot; face=&quot;Times New Roman&quot;&gt;77&lt;/font&gt;" style="shape=partialRectangle;whiteSpace=wrap;html=1;top=0;bottom=0;fillColor=none;" vertex="1" parent="_YOE5mqV0CH9EQmjLfuh-642">
          <mxGeometry x="686.7388949079092" y="105.90996719315451" width="35.53629469122427" height="35.17434978185138" as="geometry" />
        </mxCell>
        <mxCell id="_YOE5mqV0CH9EQmjLfuh-393" value="" style="shape=partialRectangle;whiteSpace=wrap;html=1;top=0;bottom=0;fillColor=none;" vertex="1" parent="_YOE5mqV0CH9EQmjLfuh-642">
          <mxGeometry x="732.0476706392201" y="105.90996719315451" width="35.53629469122427" height="35.17434978185138" as="geometry" />
        </mxCell>
        <mxCell id="_YOE5mqV0CH9EQmjLfuh-394" value="" style="shape=partialRectangle;whiteSpace=wrap;html=1;top=0;bottom=0;fillColor=none;" vertex="1" parent="_YOE5mqV0CH9EQmjLfuh-642">
          <mxGeometry x="775.5796316359698" y="105.90996719315451" width="35.53629469122427" height="35.17434978185138" as="geometry" />
        </mxCell>
        <mxCell id="_YOE5mqV0CH9EQmjLfuh-395" value="" style="endArrow=none;html=1;rounded=0;exitX=0;exitY=0;exitDx=0;exitDy=0;entryX=1;entryY=0;entryDx=0;entryDy=0;" edge="1" parent="_YOE5mqV0CH9EQmjLfuh-642">
          <mxGeometry width="50" height="50" relative="1" as="geometry">
            <mxPoint x="633.4344528710725" y="105.90996719315451" as="sourcePoint" />
            <mxPoint x="820.0000000000001" y="105.90996719315451" as="targetPoint" />
          </mxGeometry>
        </mxCell>
        <mxCell id="_YOE5mqV0CH9EQmjLfuh-396" value="" style="endArrow=none;html=1;rounded=0;exitX=0;exitY=1;exitDx=0;exitDy=0;" edge="1" parent="_YOE5mqV0CH9EQmjLfuh-642">
          <mxGeometry width="50" height="50" relative="1" as="geometry">
            <mxPoint x="633.4344528710725" y="141.08431697500595" as="sourcePoint" />
            <mxPoint x="820.0000000000001" y="141.08431697500595" as="targetPoint" />
          </mxGeometry>
        </mxCell>
        <mxCell id="_YOE5mqV0CH9EQmjLfuh-397" value="" style="endArrow=none;html=1;rounded=0;" edge="1" parent="_YOE5mqV0CH9EQmjLfuh-642">
          <mxGeometry width="50" height="50" relative="1" as="geometry">
            <mxPoint x="633.4344528710725" y="105.90996719315451" as="sourcePoint" />
            <mxPoint x="633.4344528710725" y="141.46748590712528" as="targetPoint" />
          </mxGeometry>
        </mxCell>
        <mxCell id="_YOE5mqV0CH9EQmjLfuh-398" value="" style="endArrow=none;html=1;rounded=0;" edge="1" parent="_YOE5mqV0CH9EQmjLfuh-642">
          <mxGeometry width="50" height="50" relative="1" as="geometry">
            <mxPoint x="820.0000000000001" y="105.52304934555417" as="sourcePoint" />
            <mxPoint x="820.0000000000001" y="141.0805680595249" as="targetPoint" />
          </mxGeometry>
        </mxCell>
        <mxCell id="_YOE5mqV0CH9EQmjLfuh-399" style="edgeStyle=orthogonalEdgeStyle;rounded=0;orthogonalLoop=1;jettySize=auto;html=1;" edge="1" parent="_YOE5mqV0CH9EQmjLfuh-642">
          <mxGeometry relative="1" as="geometry">
            <mxPoint x="353.5861321776816" y="26.380762336388543" as="sourcePoint" />
            <mxPoint x="100.39003250270855" y="105.52304934555417" as="targetPoint" />
            <Array as="points">
              <mxPoint x="353.5861321776816" y="70.34869956370277" />
              <mxPoint x="100.39003250270855" y="70.34869956370277" />
              <mxPoint x="100.39003250270855" y="105.52304934555417" />
            </Array>
          </mxGeometry>
        </mxCell>
        <mxCell id="_YOE5mqV0CH9EQmjLfuh-400" style="edgeStyle=orthogonalEdgeStyle;rounded=0;orthogonalLoop=1;jettySize=auto;html=1;entryX=0.5;entryY=0;entryDx=0;entryDy=0;" edge="1" parent="_YOE5mqV0CH9EQmjLfuh-642">
          <mxGeometry relative="1" as="geometry">
            <mxPoint x="398.00650054171183" y="26.380762336388543" as="sourcePoint" />
            <mxPoint x="299.3932827735645" y="105.90996719315451" as="targetPoint" />
            <Array as="points">
              <mxPoint x="398.00650054171183" y="87.93587445462848" />
              <mxPoint x="299.3932827735645" y="87.93587445462848" />
            </Array>
          </mxGeometry>
        </mxCell>
        <mxCell id="_YOE5mqV0CH9EQmjLfuh-589" style="edgeStyle=orthogonalEdgeStyle;rounded=0;orthogonalLoop=1;jettySize=auto;html=1;exitX=1;exitY=0.25;exitDx=0;exitDy=0;entryX=0;entryY=0.25;entryDx=0;entryDy=0;" edge="1" parent="_YOE5mqV0CH9EQmjLfuh-642">
          <mxGeometry relative="1" as="geometry">
            <mxPoint x="197.2264355362947" y="210.27446139276879" as="sourcePoint" />
            <mxPoint x="221.2134344528711" y="211.04829708796973" as="targetPoint" />
          </mxGeometry>
        </mxCell>
        <mxCell id="_YOE5mqV0CH9EQmjLfuh-512" value="" style="rounded=0;whiteSpace=wrap;html=1;rotation=90;container=0;" vertex="1" parent="_YOE5mqV0CH9EQmjLfuh-642">
          <mxGeometry x="98.13347778981584" y="205.06645922819362" width="89.8979414951246" height="18.53688233503568" as="geometry" />
        </mxCell>
        <mxCell id="_YOE5mqV0CH9EQmjLfuh-513" value="&lt;font style=&quot;font-size: 14px;&quot; face=&quot;Times New Roman&quot;&gt;23&lt;/font&gt;" style="text;html=1;strokeColor=none;fillColor=none;align=center;verticalAlign=middle;whiteSpace=wrap;rounded=0;container=0;" vertex="1" parent="_YOE5mqV0CH9EQmjLfuh-642">
          <mxGeometry x="133.51874322860246" y="169.6634761727602" width="19.136294691224272" height="17.666317177934857" as="geometry" />
        </mxCell>
        <mxCell id="_YOE5mqV0CH9EQmjLfuh-514" value="&lt;font style=&quot;font-size: 14px;&quot; face=&quot;Times New Roman&quot;&gt;25&lt;/font&gt;" style="text;html=1;strokeColor=none;fillColor=none;align=center;verticalAlign=middle;whiteSpace=wrap;rounded=0;container=0;" vertex="1" parent="_YOE5mqV0CH9EQmjLfuh-642">
          <mxGeometry x="133.51874322860246" y="185.46555281225693" width="19.136294691224272" height="18.440152873135588" as="geometry" />
        </mxCell>
        <mxCell id="_YOE5mqV0CH9EQmjLfuh-515" value="" style="endArrow=classic;html=1;rounded=0;entryX=0.5;entryY=0;entryDx=0;entryDy=0;" edge="1" parent="_YOE5mqV0CH9EQmjLfuh-642">
          <mxGeometry width="50" height="50" relative="1" as="geometry">
            <mxPoint x="142.81148429035758" y="140.69739912740553" as="sourcePoint" />
            <mxPoint x="143.08689057421455" y="168.6785943788683" as="targetPoint" />
          </mxGeometry>
        </mxCell>
        <mxCell id="_YOE5mqV0CH9EQmjLfuh-516" value="&lt;font style=&quot;font-size: 14px;&quot; face=&quot;Times New Roman&quot;&gt;27&lt;/font&gt;" style="text;html=1;strokeColor=none;fillColor=none;align=center;verticalAlign=middle;whiteSpace=wrap;rounded=0;container=0;" vertex="1" parent="_YOE5mqV0CH9EQmjLfuh-642">
          <mxGeometry x="133.51874322860246" y="222.34585855852808" width="19.136294691224272" height="18.440152873135588" as="geometry" />
        </mxCell>
        <mxCell id="_YOE5mqV0CH9EQmjLfuh-517" value="&lt;font style=&quot;font-size: 14px;&quot; face=&quot;Times New Roman&quot;&gt;26&lt;/font&gt;" style="text;html=1;strokeColor=none;fillColor=none;align=center;verticalAlign=middle;whiteSpace=wrap;rounded=0;container=0;" vertex="1" parent="_YOE5mqV0CH9EQmjLfuh-642">
          <mxGeometry x="133.51874322860246" y="203.9057056853925" width="19.136294691224272" height="18.440152873135588" as="geometry" />
        </mxCell>
        <mxCell id="_YOE5mqV0CH9EQmjLfuh-534" value="" style="endArrow=classic;html=1;rounded=0;entryX=0;entryY=0.5;entryDx=0;entryDy=0;exitX=1;exitY=0.5;exitDx=0;exitDy=0;" edge="1" parent="_YOE5mqV0CH9EQmjLfuh-642">
          <mxGeometry width="50" height="50" relative="1" as="geometry">
            <mxPoint x="108.8654387865655" y="210.48770588832147" as="sourcePoint" />
            <mxPoint x="133.51874322860235" y="210.48770588832147" as="targetPoint" />
          </mxGeometry>
        </mxCell>
        <mxCell id="_YOE5mqV0CH9EQmjLfuh-535" value="" style="endArrow=classic;html=1;rounded=0;entryX=0;entryY=0.5;entryDx=0;entryDy=0;exitX=1;exitY=0.5;exitDx=0;exitDy=0;" edge="1" parent="_YOE5mqV0CH9EQmjLfuh-642">
          <mxGeometry width="50" height="50" relative="1" as="geometry">
            <mxPoint x="152.6550379198266" y="210.48770588832147" as="sourcePoint" />
            <mxPoint x="178.09014084507047" y="210.48770588832147" as="targetPoint" />
          </mxGeometry>
        </mxCell>
        <mxCell id="_YOE5mqV0CH9EQmjLfuh-366" value="&lt;font face=&quot;Times New Roman&quot; style=&quot;font-size: 20px;&quot;&gt;5&lt;/font&gt;" style="shape=partialRectangle;whiteSpace=wrap;html=1;top=0;bottom=0;fillColor=none;container=0;" vertex="1" parent="_YOE5mqV0CH9EQmjLfuh-642">
          <mxGeometry x="13.734777898158182" y="105.9016777234124" width="35.53629469122427" height="34.420761623476984" as="geometry" />
        </mxCell>
        <mxCell id="_YOE5mqV0CH9EQmjLfuh-367" value="&lt;font style=&quot;font-size: 20px;&quot; face=&quot;Times New Roman&quot;&gt;11&lt;/font&gt;" style="shape=partialRectangle;whiteSpace=wrap;html=1;top=0;bottom=0;fillColor=none;container=0;" vertex="1" parent="_YOE5mqV0CH9EQmjLfuh-642">
          <mxGeometry x="58.15514626218853" y="105.9016777234124" width="35.53629469122427" height="34.420761623476984" as="geometry" />
        </mxCell>
        <mxCell id="_YOE5mqV0CH9EQmjLfuh-368" value="&lt;font style=&quot;font-size: 20px;&quot; face=&quot;Times New Roman&quot;&gt;21&lt;/font&gt;" style="shape=partialRectangle;whiteSpace=wrap;html=1;top=0;bottom=0;fillColor=none;container=0;" vertex="1" parent="_YOE5mqV0CH9EQmjLfuh-642">
          <mxGeometry x="103.46392199349948" y="105.9016777234124" width="35.53629469122427" height="34.420761623476984" as="geometry" />
        </mxCell>
        <mxCell id="_YOE5mqV0CH9EQmjLfuh-369" value="&lt;font face=&quot;Times New Roman&quot; style=&quot;font-size: 20px;&quot;&gt;27&lt;/font&gt;" style="shape=partialRectangle;whiteSpace=wrap;html=1;top=0;bottom=0;fillColor=none;container=0;" vertex="1" parent="_YOE5mqV0CH9EQmjLfuh-642">
          <mxGeometry x="146.99588299024924" y="105.9016777234124" width="35.53629469122427" height="34.420761623476984" as="geometry" />
        </mxCell>
        <mxCell id="_YOE5mqV0CH9EQmjLfuh-370" value="" style="endArrow=none;html=1;rounded=0;exitX=0;exitY=0;exitDx=0;exitDy=0;entryX=1;entryY=0;entryDx=0;entryDy=0;" edge="1" parent="_YOE5mqV0CH9EQmjLfuh-642">
          <mxGeometry width="50" height="50" relative="1" as="geometry">
            <mxPoint x="4.850704225352113" y="105.9016777234124" as="sourcePoint" />
            <mxPoint x="191.41625135427958" y="105.9016777234124" as="targetPoint" />
          </mxGeometry>
        </mxCell>
        <mxCell id="_YOE5mqV0CH9EQmjLfuh-371" value="" style="endArrow=none;html=1;rounded=0;exitX=0;exitY=1;exitDx=0;exitDy=0;" edge="1" parent="_YOE5mqV0CH9EQmjLfuh-642">
          <mxGeometry width="50" height="50" relative="1" as="geometry">
            <mxPoint x="4.850704225352113" y="140.32243934688944" as="sourcePoint" />
            <mxPoint x="191.41625135427958" y="140.32243934688944" as="targetPoint" />
          </mxGeometry>
        </mxCell>
        <mxCell id="_YOE5mqV0CH9EQmjLfuh-372" value="" style="endArrow=none;html=1;rounded=0;" edge="1" parent="_YOE5mqV0CH9EQmjLfuh-642">
          <mxGeometry width="50" height="50" relative="1" as="geometry">
            <mxPoint x="4.850704225352113" y="105.9016777234124" as="sourcePoint" />
            <mxPoint x="4.850704225352113" y="140.69739912740553" as="targetPoint" />
          </mxGeometry>
        </mxCell>
        <mxCell id="_YOE5mqV0CH9EQmjLfuh-373" value="" style="endArrow=none;html=1;rounded=0;" edge="1" parent="_YOE5mqV0CH9EQmjLfuh-642">
          <mxGeometry width="50" height="50" relative="1" as="geometry">
            <mxPoint x="191.41625135427958" y="105.52304934555417" as="sourcePoint" />
            <mxPoint x="191.41625135427958" y="140.31877074954733" as="targetPoint" />
          </mxGeometry>
        </mxCell>
        <mxCell id="_YOE5mqV0CH9EQmjLfuh-520" value="" style="rounded=0;whiteSpace=wrap;html=1;rotation=90;container=0;" vertex="1" parent="_YOE5mqV0CH9EQmjLfuh-642">
          <mxGeometry x="142.70487540628395" y="205.06645922819362" width="89.8979414951246" height="18.53688233503568" as="geometry" />
        </mxCell>
        <mxCell id="_YOE5mqV0CH9EQmjLfuh-521" value="&lt;font style=&quot;font-size: 14px;&quot; face=&quot;Times New Roman&quot;&gt;30&lt;/font&gt;" style="text;html=1;strokeColor=none;fillColor=none;align=center;verticalAlign=middle;whiteSpace=wrap;rounded=0;container=0;" vertex="1" parent="_YOE5mqV0CH9EQmjLfuh-642">
          <mxGeometry x="178.09014084507047" y="169.6634761727602" width="19.136294691224272" height="17.666317177934857" as="geometry" />
        </mxCell>
        <mxCell id="_YOE5mqV0CH9EQmjLfuh-522" value="&lt;font style=&quot;font-size: 14px;&quot; face=&quot;Times New Roman&quot;&gt;31&lt;/font&gt;" style="text;html=1;strokeColor=none;fillColor=none;align=center;verticalAlign=middle;whiteSpace=wrap;rounded=0;container=0;" vertex="1" parent="_YOE5mqV0CH9EQmjLfuh-642">
          <mxGeometry x="178.09014084507047" y="185.46555281225693" width="19.136294691224272" height="18.440152873135588" as="geometry" />
        </mxCell>
        <mxCell id="_YOE5mqV0CH9EQmjLfuh-523" value="" style="endArrow=classic;html=1;rounded=0;entryX=0.5;entryY=0;entryDx=0;entryDy=0;" edge="1" parent="_YOE5mqV0CH9EQmjLfuh-642">
          <mxGeometry width="50" height="50" relative="1" as="geometry">
            <mxPoint x="187.38288190682562" y="140.69739912740553" as="sourcePoint" />
            <mxPoint x="187.65828819068258" y="168.6785943788683" as="targetPoint" />
          </mxGeometry>
        </mxCell>
        <mxCell id="_YOE5mqV0CH9EQmjLfuh-524" value="&lt;font style=&quot;font-size: 14px;&quot; face=&quot;Times New Roman&quot;&gt;33&lt;/font&gt;" style="text;html=1;strokeColor=none;fillColor=none;align=center;verticalAlign=middle;whiteSpace=wrap;rounded=0;container=0;" vertex="1" parent="_YOE5mqV0CH9EQmjLfuh-642">
          <mxGeometry x="178.09014084507047" y="222.34585855852808" width="19.136294691224272" height="18.440152873135588" as="geometry" />
        </mxCell>
        <mxCell id="_YOE5mqV0CH9EQmjLfuh-525" value="&lt;font style=&quot;font-size: 14px;&quot; face=&quot;Times New Roman&quot;&gt;32&lt;/font&gt;" style="text;html=1;strokeColor=none;fillColor=none;align=center;verticalAlign=middle;whiteSpace=wrap;rounded=0;container=0;" vertex="1" parent="_YOE5mqV0CH9EQmjLfuh-642">
          <mxGeometry x="178.09014084507047" y="203.9057056853925" width="19.136294691224272" height="18.440152873135588" as="geometry" />
        </mxCell>
        <mxCell id="_YOE5mqV0CH9EQmjLfuh-526" value="&lt;font style=&quot;font-size: 14px;&quot; face=&quot;Times New Roman&quot;&gt;34&lt;/font&gt;" style="text;html=1;strokeColor=none;fillColor=none;align=center;verticalAlign=middle;whiteSpace=wrap;rounded=0;container=0;" vertex="1" parent="_YOE5mqV0CH9EQmjLfuh-642">
          <mxGeometry x="178.09014084507047" y="240.78601143166367" width="19.136294691224272" height="18.440152873135588" as="geometry" />
        </mxCell>
        <mxCell id="_YOE5mqV0CH9EQmjLfuh-531" value="" style="endArrow=classic;html=1;rounded=0;entryX=0;entryY=0.75;entryDx=0;entryDy=0;exitX=1;exitY=0.75;exitDx=0;exitDy=0;" edge="1" parent="_YOE5mqV0CH9EQmjLfuh-642">
          <mxGeometry width="50" height="50" relative="1" as="geometry">
            <mxPoint x="19.136294691224208" y="209.84797240166407" as="sourcePoint" />
            <mxPoint x="43.94062838569881" y="209.84797240166395" as="targetPoint" />
          </mxGeometry>
        </mxCell>
        <mxCell id="_YOE5mqV0CH9EQmjLfuh-533" value="" style="endArrow=classic;html=1;rounded=0;entryX=0;entryY=0.75;entryDx=0;entryDy=0;exitX=1;exitY=0.75;exitDx=0;exitDy=0;" edge="1" parent="_YOE5mqV0CH9EQmjLfuh-642">
          <mxGeometry width="50" height="50" relative="1" as="geometry">
            <mxPoint x="63.076923076923016" y="210.10298643758244" as="sourcePoint" />
            <mxPoint x="87.88125677139764" y="210.1029864375824" as="targetPoint" />
          </mxGeometry>
        </mxCell>
        <mxCell id="_YOE5mqV0CH9EQmjLfuh-421" value="" style="rounded=0;whiteSpace=wrap;html=1;rotation=90;container=0;" vertex="1" parent="_YOE5mqV0CH9EQmjLfuh-642">
          <mxGeometry x="-35.38526543878657" y="205.06645922819362" width="89.8979414951246" height="18.53688233503568" as="geometry" />
        </mxCell>
        <mxCell id="_YOE5mqV0CH9EQmjLfuh-423" value="&lt;font style=&quot;font-size: 14px;&quot; face=&quot;Times New Roman&quot;&gt;1&lt;/font&gt;" style="text;html=1;strokeColor=none;fillColor=none;align=center;verticalAlign=middle;whiteSpace=wrap;rounded=0;container=0;" vertex="1" parent="_YOE5mqV0CH9EQmjLfuh-642">
          <mxGeometry y="169.6634761727602" width="19.136294691224272" height="17.666317177934857" as="geometry" />
        </mxCell>
        <mxCell id="_YOE5mqV0CH9EQmjLfuh-424" value="&lt;font style=&quot;font-size: 14px;&quot; face=&quot;Times New Roman&quot;&gt;3&lt;/font&gt;" style="text;html=1;strokeColor=none;fillColor=none;align=center;verticalAlign=middle;whiteSpace=wrap;rounded=0;container=0;" vertex="1" parent="_YOE5mqV0CH9EQmjLfuh-642">
          <mxGeometry y="185.46555281225693" width="19.136294691224272" height="18.440152873135588" as="geometry" />
        </mxCell>
        <mxCell id="_YOE5mqV0CH9EQmjLfuh-474" value="" style="endArrow=classic;html=1;rounded=0;entryX=0.5;entryY=0;entryDx=0;entryDy=0;" edge="1" parent="_YOE5mqV0CH9EQmjLfuh-642">
          <mxGeometry width="50" height="50" relative="1" as="geometry">
            <mxPoint x="9.292741061755146" y="140.69739912740553" as="sourcePoint" />
            <mxPoint x="9.568147345612086" y="168.6785943788683" as="targetPoint" />
          </mxGeometry>
        </mxCell>
        <mxCell id="_YOE5mqV0CH9EQmjLfuh-483" value="&lt;font style=&quot;font-size: 14px;&quot; face=&quot;Times New Roman&quot;&gt;5&lt;/font&gt;" style="text;html=1;strokeColor=none;fillColor=none;align=center;verticalAlign=middle;whiteSpace=wrap;rounded=0;container=0;" vertex="1" parent="_YOE5mqV0CH9EQmjLfuh-642">
          <mxGeometry y="203.9057056853925" width="19.136294691224272" height="18.440152873135588" as="geometry" />
        </mxCell>
        <mxCell id="_YOE5mqV0CH9EQmjLfuh-504" value="" style="rounded=0;whiteSpace=wrap;html=1;rotation=90;container=0;" vertex="1" parent="_YOE5mqV0CH9EQmjLfuh-642">
          <mxGeometry x="8.55536294691227" y="205.06645922819362" width="89.8979414951246" height="18.53688233503568" as="geometry" />
        </mxCell>
        <mxCell id="_YOE5mqV0CH9EQmjLfuh-505" value="&lt;font face=&quot;Times New Roman&quot;&gt;&lt;span style=&quot;font-size: 14px;&quot;&gt;8&lt;/span&gt;&lt;/font&gt;" style="text;html=1;strokeColor=none;fillColor=none;align=center;verticalAlign=middle;whiteSpace=wrap;rounded=0;container=0;" vertex="1" parent="_YOE5mqV0CH9EQmjLfuh-642">
          <mxGeometry x="43.94062838569883" y="169.6634761727602" width="19.136294691224272" height="17.666317177934857" as="geometry" />
        </mxCell>
        <mxCell id="_YOE5mqV0CH9EQmjLfuh-506" value="&lt;font style=&quot;font-size: 14px;&quot; face=&quot;Times New Roman&quot;&gt;9&lt;/font&gt;" style="text;html=1;strokeColor=none;fillColor=none;align=center;verticalAlign=middle;whiteSpace=wrap;rounded=0;container=0;" vertex="1" parent="_YOE5mqV0CH9EQmjLfuh-642">
          <mxGeometry x="43.94062838569883" y="185.46555281225693" width="19.136294691224272" height="18.440152873135588" as="geometry" />
        </mxCell>
        <mxCell id="_YOE5mqV0CH9EQmjLfuh-507" value="" style="endArrow=classic;html=1;rounded=0;entryX=0.5;entryY=0;entryDx=0;entryDy=0;" edge="1" parent="_YOE5mqV0CH9EQmjLfuh-642">
          <mxGeometry width="50" height="50" relative="1" as="geometry">
            <mxPoint x="53.23336944745399" y="140.69739912740553" as="sourcePoint" />
            <mxPoint x="53.50877573131093" y="168.6785943788683" as="targetPoint" />
          </mxGeometry>
        </mxCell>
        <mxCell id="_YOE5mqV0CH9EQmjLfuh-509" value="&lt;font face=&quot;Times New Roman&quot;&gt;&lt;span style=&quot;font-size: 14px;&quot;&gt;11&lt;/span&gt;&lt;/font&gt;" style="text;html=1;strokeColor=none;fillColor=none;align=center;verticalAlign=middle;whiteSpace=wrap;rounded=0;container=0;" vertex="1" parent="_YOE5mqV0CH9EQmjLfuh-642">
          <mxGeometry x="43.94062838569883" y="202.2525112456455" width="19.136294691224272" height="17.58717489092569" as="geometry" />
        </mxCell>
        <mxCell id="_YOE5mqV0CH9EQmjLfuh-496" value="" style="rounded=0;whiteSpace=wrap;html=1;rotation=90;container=0;" vertex="1" parent="_YOE5mqV0CH9EQmjLfuh-642">
          <mxGeometry x="54.34387865655474" y="205.06645922819362" width="89.8979414951246" height="18.53688233503568" as="geometry" />
        </mxCell>
        <mxCell id="_YOE5mqV0CH9EQmjLfuh-497" value="&lt;font style=&quot;font-size: 14px;&quot; face=&quot;Times New Roman&quot;&gt;15&lt;/font&gt;" style="text;html=1;strokeColor=none;fillColor=none;align=center;verticalAlign=middle;whiteSpace=wrap;rounded=0;container=0;" vertex="1" parent="_YOE5mqV0CH9EQmjLfuh-642">
          <mxGeometry x="89.72914409534133" y="169.6634761727602" width="19.136294691224272" height="17.666317177934857" as="geometry" />
        </mxCell>
        <mxCell id="_YOE5mqV0CH9EQmjLfuh-498" value="&lt;font style=&quot;font-size: 14px;&quot; face=&quot;Times New Roman&quot;&gt;16&lt;/font&gt;" style="text;html=1;strokeColor=none;fillColor=none;align=center;verticalAlign=middle;whiteSpace=wrap;rounded=0;container=0;" vertex="1" parent="_YOE5mqV0CH9EQmjLfuh-642">
          <mxGeometry x="89.72914409534133" y="185.46555281225693" width="19.136294691224272" height="18.440152873135588" as="geometry" />
        </mxCell>
        <mxCell id="_YOE5mqV0CH9EQmjLfuh-499" value="" style="endArrow=classic;html=1;rounded=0;entryX=0.5;entryY=0;entryDx=0;entryDy=0;" edge="1" parent="_YOE5mqV0CH9EQmjLfuh-642">
          <mxGeometry width="50" height="50" relative="1" as="geometry">
            <mxPoint x="99.02188515709645" y="140.69739912740553" as="sourcePoint" />
            <mxPoint x="99.29729144095339" y="168.6785943788683" as="targetPoint" />
          </mxGeometry>
        </mxCell>
        <mxCell id="_YOE5mqV0CH9EQmjLfuh-500" value="&lt;font style=&quot;font-size: 14px;&quot; face=&quot;Times New Roman&quot;&gt;19&lt;/font&gt;" style="text;html=1;strokeColor=none;fillColor=none;align=center;verticalAlign=middle;whiteSpace=wrap;rounded=0;container=0;" vertex="1" parent="_YOE5mqV0CH9EQmjLfuh-642">
          <mxGeometry x="89.72914409534133" y="222.34585855852808" width="19.136294691224272" height="18.440152873135588" as="geometry" />
        </mxCell>
        <mxCell id="_YOE5mqV0CH9EQmjLfuh-501" value="&lt;font face=&quot;Times New Roman&quot;&gt;&lt;span style=&quot;font-size: 14px;&quot;&gt;18&lt;/span&gt;&lt;/font&gt;" style="text;html=1;strokeColor=none;fillColor=none;align=center;verticalAlign=middle;whiteSpace=wrap;rounded=0;container=0;" vertex="1" parent="_YOE5mqV0CH9EQmjLfuh-642">
          <mxGeometry x="89.72914409534133" y="203.9057056853925" width="19.136294691224272" height="18.440152873135588" as="geometry" />
        </mxCell>
        <mxCell id="_YOE5mqV0CH9EQmjLfuh-502" value="&lt;font style=&quot;font-size: 14px;&quot; face=&quot;Times New Roman&quot;&gt;21&lt;/font&gt;" style="text;html=1;strokeColor=none;fillColor=none;align=center;verticalAlign=middle;whiteSpace=wrap;rounded=0;container=0;" vertex="1" parent="_YOE5mqV0CH9EQmjLfuh-642">
          <mxGeometry x="89.72914409534133" y="240.78601143166367" width="19.136294691224272" height="18.440152873135588" as="geometry" />
        </mxCell>
        <mxCell id="_YOE5mqV0CH9EQmjLfuh-375" value="&lt;font style=&quot;font-size: 20px;&quot; face=&quot;Times New Roman&quot;&gt;38&lt;/font&gt;" style="shape=partialRectangle;whiteSpace=wrap;html=1;top=0;bottom=0;fillColor=none;" vertex="1" parent="_YOE5mqV0CH9EQmjLfuh-642">
          <mxGeometry x="232.76273022751897" y="105.90996719315451" width="35.53629469122427" height="35.17434978185138" as="geometry" />
        </mxCell>
        <mxCell id="_YOE5mqV0CH9EQmjLfuh-376" value="&lt;font style=&quot;font-size: 20px;&quot; face=&quot;Times New Roman&quot;&gt;45&lt;/font&gt;" style="shape=partialRectangle;whiteSpace=wrap;html=1;top=0;bottom=0;fillColor=none;" vertex="1" parent="_YOE5mqV0CH9EQmjLfuh-642">
          <mxGeometry x="277.18309859154925" y="105.90996719315451" width="35.53629469122427" height="35.17434978185138" as="geometry" />
        </mxCell>
        <mxCell id="_YOE5mqV0CH9EQmjLfuh-377" value="" style="shape=partialRectangle;whiteSpace=wrap;html=1;top=0;bottom=0;fillColor=none;" vertex="1" parent="_YOE5mqV0CH9EQmjLfuh-642">
          <mxGeometry x="322.4918743228602" y="105.90996719315451" width="35.53629469122427" height="35.17434978185138" as="geometry" />
        </mxCell>
        <mxCell id="_YOE5mqV0CH9EQmjLfuh-378" value="" style="shape=partialRectangle;whiteSpace=wrap;html=1;top=0;bottom=0;fillColor=none;" vertex="1" parent="_YOE5mqV0CH9EQmjLfuh-642">
          <mxGeometry x="366.02383531961004" y="105.90996719315451" width="35.53629469122427" height="35.17434978185138" as="geometry" />
        </mxCell>
        <mxCell id="_YOE5mqV0CH9EQmjLfuh-379" value="" style="endArrow=none;html=1;rounded=0;exitX=0;exitY=0;exitDx=0;exitDy=0;entryX=1;entryY=0;entryDx=0;entryDy=0;" edge="1" parent="_YOE5mqV0CH9EQmjLfuh-642">
          <mxGeometry width="50" height="50" relative="1" as="geometry">
            <mxPoint x="223.8786565547129" y="105.90996719315451" as="sourcePoint" />
            <mxPoint x="410.4442036836403" y="105.90996719315451" as="targetPoint" />
          </mxGeometry>
        </mxCell>
        <mxCell id="_YOE5mqV0CH9EQmjLfuh-380" value="" style="endArrow=none;html=1;rounded=0;exitX=0;exitY=1;exitDx=0;exitDy=0;" edge="1" parent="_YOE5mqV0CH9EQmjLfuh-642">
          <mxGeometry width="50" height="50" relative="1" as="geometry">
            <mxPoint x="223.8786565547129" y="141.08431697500595" as="sourcePoint" />
            <mxPoint x="410.4442036836403" y="141.08431697500595" as="targetPoint" />
          </mxGeometry>
        </mxCell>
        <mxCell id="_YOE5mqV0CH9EQmjLfuh-381" value="" style="endArrow=none;html=1;rounded=0;" edge="1" parent="_YOE5mqV0CH9EQmjLfuh-642">
          <mxGeometry width="50" height="50" relative="1" as="geometry">
            <mxPoint x="223.8786565547129" y="105.90996719315451" as="sourcePoint" />
            <mxPoint x="223.8786565547129" y="141.46748590712528" as="targetPoint" />
          </mxGeometry>
        </mxCell>
        <mxCell id="_YOE5mqV0CH9EQmjLfuh-382" value="" style="endArrow=none;html=1;rounded=0;" edge="1" parent="_YOE5mqV0CH9EQmjLfuh-642">
          <mxGeometry width="50" height="50" relative="1" as="geometry">
            <mxPoint x="410.4442036836403" y="105.52304934555417" as="sourcePoint" />
            <mxPoint x="410.4442036836403" y="141.0805680595249" as="targetPoint" />
          </mxGeometry>
        </mxCell>
        <mxCell id="_YOE5mqV0CH9EQmjLfuh-581" value="" style="endArrow=classic;html=1;rounded=0;entryX=0;entryY=0.75;entryDx=0;entryDy=0;exitX=1;exitY=0.75;exitDx=0;exitDy=0;" edge="1" parent="_YOE5mqV0CH9EQmjLfuh-642">
          <mxGeometry width="50" height="50" relative="1" as="geometry">
            <mxPoint x="239.46132177681469" y="210.6218080968648" as="sourcePoint" />
            <mxPoint x="264.2656554712893" y="210.62180809686464" as="targetPoint" />
          </mxGeometry>
        </mxCell>
        <mxCell id="_YOE5mqV0CH9EQmjLfuh-582" value="" style="endArrow=classic;html=1;rounded=0;entryX=0;entryY=0.75;entryDx=0;entryDy=0;exitX=1;exitY=0.75;exitDx=0;exitDy=0;" edge="1" parent="_YOE5mqV0CH9EQmjLfuh-642">
          <mxGeometry width="50" height="50" relative="1" as="geometry">
            <mxPoint x="283.4019501625135" y="210.87682213278325" as="sourcePoint" />
            <mxPoint x="308.20628385698814" y="210.87682213278313" as="targetPoint" />
          </mxGeometry>
        </mxCell>
        <mxCell id="_YOE5mqV0CH9EQmjLfuh-561" value="" style="rounded=0;whiteSpace=wrap;html=1;rotation=90;container=0;" vertex="1" parent="_YOE5mqV0CH9EQmjLfuh-642">
          <mxGeometry x="184.93976164680393" y="205.8402949233943" width="89.8979414951246" height="18.53688233503568" as="geometry" />
        </mxCell>
        <mxCell id="_YOE5mqV0CH9EQmjLfuh-562" value="&lt;font style=&quot;font-size: 14px;&quot; face=&quot;Times New Roman&quot;&gt;35&lt;/font&gt;" style="text;html=1;strokeColor=none;fillColor=none;align=center;verticalAlign=middle;whiteSpace=wrap;rounded=0;container=0;" vertex="1" parent="_YOE5mqV0CH9EQmjLfuh-642">
          <mxGeometry x="220.32502708559048" y="170.43731186796094" width="19.136294691224272" height="15.001860181959614" as="geometry" />
        </mxCell>
        <mxCell id="_YOE5mqV0CH9EQmjLfuh-563" value="&lt;font style=&quot;font-size: 14px;&quot; face=&quot;Times New Roman&quot;&gt;37&lt;/font&gt;" style="text;html=1;strokeColor=none;fillColor=none;align=center;verticalAlign=middle;whiteSpace=wrap;rounded=0;container=0;" vertex="1" parent="_YOE5mqV0CH9EQmjLfuh-642">
          <mxGeometry x="220.32502708559048" y="186.2393885074576" width="19.136294691224272" height="18.440152873135588" as="geometry" />
        </mxCell>
        <mxCell id="_YOE5mqV0CH9EQmjLfuh-564" value="" style="endArrow=classic;html=1;rounded=0;entryX=0.5;entryY=0;entryDx=0;entryDy=0;" edge="1" parent="_YOE5mqV0CH9EQmjLfuh-642">
          <mxGeometry width="50" height="50" relative="1" as="geometry">
            <mxPoint x="229.61776814734563" y="141.47123482260628" as="sourcePoint" />
            <mxPoint x="229.89317443120257" y="169.452430074069" as="targetPoint" />
          </mxGeometry>
        </mxCell>
        <mxCell id="_YOE5mqV0CH9EQmjLfuh-565" value="&lt;font face=&quot;Times New Roman&quot;&gt;&lt;span style=&quot;font-size: 14px;&quot;&gt;38&lt;/span&gt;&lt;/font&gt;" style="text;html=1;strokeColor=none;fillColor=none;align=center;verticalAlign=middle;whiteSpace=wrap;rounded=0;container=0;" vertex="1" parent="_YOE5mqV0CH9EQmjLfuh-642">
          <mxGeometry x="220.32502708559048" y="204.6795413805932" width="19.136294691224272" height="18.440152873135588" as="geometry" />
        </mxCell>
        <mxCell id="_YOE5mqV0CH9EQmjLfuh-567" value="" style="rounded=0;whiteSpace=wrap;html=1;rotation=90;container=0;" vertex="1" parent="_YOE5mqV0CH9EQmjLfuh-642">
          <mxGeometry x="228.88039003250276" y="205.8402949233943" width="89.8979414951246" height="18.53688233503568" as="geometry" />
        </mxCell>
        <mxCell id="_YOE5mqV0CH9EQmjLfuh-568" value="&lt;font face=&quot;Times New Roman&quot;&gt;&lt;span style=&quot;font-size: 14px;&quot;&gt;40&lt;/span&gt;&lt;/font&gt;" style="text;html=1;strokeColor=none;fillColor=none;align=center;verticalAlign=middle;whiteSpace=wrap;rounded=0;container=0;" vertex="1" parent="_YOE5mqV0CH9EQmjLfuh-642">
          <mxGeometry x="264.26565547128934" y="170.43731186796094" width="19.136294691224272" height="17.666317177934857" as="geometry" />
        </mxCell>
        <mxCell id="_YOE5mqV0CH9EQmjLfuh-569" value="&lt;font style=&quot;font-size: 14px;&quot; face=&quot;Times New Roman&quot;&gt;42&lt;/font&gt;" style="text;html=1;strokeColor=none;fillColor=none;align=center;verticalAlign=middle;whiteSpace=wrap;rounded=0;container=0;" vertex="1" parent="_YOE5mqV0CH9EQmjLfuh-642">
          <mxGeometry x="264.26565547128934" y="186.2393885074576" width="19.136294691224272" height="18.440152873135588" as="geometry" />
        </mxCell>
        <mxCell id="_YOE5mqV0CH9EQmjLfuh-570" value="" style="endArrow=classic;html=1;rounded=0;entryX=0.5;entryY=0;entryDx=0;entryDy=0;" edge="1" parent="_YOE5mqV0CH9EQmjLfuh-642">
          <mxGeometry width="50" height="50" relative="1" as="geometry">
            <mxPoint x="273.55839653304446" y="141.47123482260628" as="sourcePoint" />
            <mxPoint x="273.83380281690137" y="169.452430074069" as="targetPoint" />
          </mxGeometry>
        </mxCell>
        <mxCell id="_YOE5mqV0CH9EQmjLfuh-571" value="&lt;font face=&quot;Times New Roman&quot;&gt;&lt;span style=&quot;font-size: 14px;&quot;&gt;43&lt;/span&gt;&lt;/font&gt;" style="text;html=1;strokeColor=none;fillColor=none;align=center;verticalAlign=middle;whiteSpace=wrap;rounded=0;container=0;" vertex="1" parent="_YOE5mqV0CH9EQmjLfuh-642">
          <mxGeometry x="264.26565547128934" y="203.02634694084617" width="19.136294691224272" height="17.58717489092569" as="geometry" />
        </mxCell>
        <mxCell id="_YOE5mqV0CH9EQmjLfuh-574" value="" style="rounded=0;whiteSpace=wrap;html=1;rotation=90;container=0;" vertex="1" parent="_YOE5mqV0CH9EQmjLfuh-642">
          <mxGeometry x="274.6689057421452" y="205.8402949233943" width="89.8979414951246" height="18.53688233503568" as="geometry" />
        </mxCell>
        <mxCell id="_YOE5mqV0CH9EQmjLfuh-575" value="&lt;font style=&quot;font-size: 14px;&quot; face=&quot;Times New Roman&quot;&gt;46&lt;/font&gt;" style="text;html=1;strokeColor=none;fillColor=none;align=center;verticalAlign=middle;whiteSpace=wrap;rounded=0;container=0;" vertex="1" parent="_YOE5mqV0CH9EQmjLfuh-642">
          <mxGeometry x="310.0541711809318" y="170.43731186796094" width="19.136294691224272" height="17.666317177934857" as="geometry" />
        </mxCell>
        <mxCell id="_YOE5mqV0CH9EQmjLfuh-576" value="&lt;font style=&quot;font-size: 14px;&quot; face=&quot;Times New Roman&quot;&gt;47&lt;/font&gt;" style="text;html=1;strokeColor=none;fillColor=none;align=center;verticalAlign=middle;whiteSpace=wrap;rounded=0;container=0;" vertex="1" parent="_YOE5mqV0CH9EQmjLfuh-642">
          <mxGeometry x="310.0541711809318" y="186.2393885074576" width="19.136294691224272" height="18.440152873135588" as="geometry" />
        </mxCell>
        <mxCell id="_YOE5mqV0CH9EQmjLfuh-577" value="" style="endArrow=classic;html=1;rounded=0;entryX=0.5;entryY=0;entryDx=0;entryDy=0;" edge="1" parent="_YOE5mqV0CH9EQmjLfuh-642">
          <mxGeometry width="50" height="50" relative="1" as="geometry">
            <mxPoint x="319.346912242687" y="141.47123482260628" as="sourcePoint" />
            <mxPoint x="319.62231852654395" y="169.452430074069" as="targetPoint" />
          </mxGeometry>
        </mxCell>
        <mxCell id="_YOE5mqV0CH9EQmjLfuh-578" value="&lt;font style=&quot;font-size: 14px;&quot; face=&quot;Times New Roman&quot;&gt;44&lt;/font&gt;" style="text;html=1;strokeColor=none;fillColor=none;align=center;verticalAlign=middle;whiteSpace=wrap;rounded=0;container=0;" vertex="1" parent="_YOE5mqV0CH9EQmjLfuh-642">
          <mxGeometry x="264.74539544962084" y="221.36097676463618" width="19.136294691224272" height="18.440152873135588" as="geometry" />
        </mxCell>
        <mxCell id="_YOE5mqV0CH9EQmjLfuh-579" value="&lt;font face=&quot;Times New Roman&quot;&gt;&lt;span style=&quot;font-size: 14px;&quot;&gt;48&lt;/span&gt;&lt;/font&gt;" style="text;html=1;strokeColor=none;fillColor=none;align=center;verticalAlign=middle;whiteSpace=wrap;rounded=0;container=0;" vertex="1" parent="_YOE5mqV0CH9EQmjLfuh-642">
          <mxGeometry x="310.0541711809318" y="204.6795413805932" width="19.136294691224272" height="18.440152873135588" as="geometry" />
        </mxCell>
        <mxCell id="_YOE5mqV0CH9EQmjLfuh-580" value="&lt;font style=&quot;font-size: 14px;&quot; face=&quot;Times New Roman&quot;&gt;45&lt;/font&gt;" style="text;html=1;strokeColor=none;fillColor=none;align=center;verticalAlign=middle;whiteSpace=wrap;rounded=0;container=0;" vertex="1" parent="_YOE5mqV0CH9EQmjLfuh-642">
          <mxGeometry x="263.85698808234025" y="241.5598471268644" width="19.136294691224272" height="18.440152873135588" as="geometry" />
        </mxCell>
        <mxCell id="_YOE5mqV0CH9EQmjLfuh-615" value="" style="group" vertex="1" connectable="0" parent="_YOE5mqV0CH9EQmjLfuh-642">
          <mxGeometry x="331.37594799566625" y="140.59187607805998" width="200.78006500541713" height="118.52876517739371" as="geometry" />
        </mxCell>
        <mxCell id="_YOE5mqV0CH9EQmjLfuh-593" value="" style="group" vertex="1" connectable="0" parent="_YOE5mqV0CH9EQmjLfuh-615">
          <mxGeometry x="91.91462621885157" width="108.86543878656559" height="118.52876517739371" as="geometry" />
        </mxCell>
        <mxCell id="_YOE5mqV0CH9EQmjLfuh-594" value="" style="endArrow=classic;html=1;rounded=0;entryX=0;entryY=0.75;entryDx=0;entryDy=0;exitX=1;exitY=0.75;exitDx=0;exitDy=0;" edge="1" parent="_YOE5mqV0CH9EQmjLfuh-593">
          <mxGeometry width="50" height="50" relative="1" as="geometry">
            <mxPoint x="19.136294691224187" y="69.1505732742585" as="sourcePoint" />
            <mxPoint x="43.940628385698794" y="69.1505732742584" as="targetPoint" />
          </mxGeometry>
        </mxCell>
        <mxCell id="_YOE5mqV0CH9EQmjLfuh-595" value="" style="endArrow=classic;html=1;rounded=0;entryX=0;entryY=0.75;entryDx=0;entryDy=0;exitX=1;exitY=0.75;exitDx=0;exitDy=0;" edge="1" parent="_YOE5mqV0CH9EQmjLfuh-593">
          <mxGeometry width="50" height="50" relative="1" as="geometry">
            <mxPoint x="63.076923076923016" y="69.40558731017694" as="sourcePoint" />
            <mxPoint x="87.88125677139764" y="69.40558731017686" as="targetPoint" />
          </mxGeometry>
        </mxCell>
        <mxCell id="_YOE5mqV0CH9EQmjLfuh-596" value="" style="rounded=0;whiteSpace=wrap;html=1;rotation=90;container=0;" vertex="1" parent="_YOE5mqV0CH9EQmjLfuh-593">
          <mxGeometry x="-35.385265438786554" y="64.36906010078803" width="89.8979414951246" height="18.536882335035674" as="geometry" />
        </mxCell>
        <mxCell id="_YOE5mqV0CH9EQmjLfuh-597" value="&lt;font style=&quot;font-size: 14px;&quot; face=&quot;Times New Roman&quot;&gt;50&lt;/font&gt;" style="text;html=1;strokeColor=none;fillColor=none;align=center;verticalAlign=middle;whiteSpace=wrap;rounded=0;container=0;" vertex="1" parent="_YOE5mqV0CH9EQmjLfuh-593">
          <mxGeometry y="28.96607704535461" width="19.136294691224272" height="15.001860181959614" as="geometry" />
        </mxCell>
        <mxCell id="_YOE5mqV0CH9EQmjLfuh-598" value="&lt;font style=&quot;font-size: 14px;&quot; face=&quot;Times New Roman&quot;&gt;51&lt;/font&gt;" style="text;html=1;strokeColor=none;fillColor=none;align=center;verticalAlign=middle;whiteSpace=wrap;rounded=0;container=0;" vertex="1" parent="_YOE5mqV0CH9EQmjLfuh-593">
          <mxGeometry y="44.76815368485133" width="19.136294691224272" height="18.44015287313559" as="geometry" />
        </mxCell>
        <mxCell id="_YOE5mqV0CH9EQmjLfuh-599" value="" style="endArrow=classic;html=1;rounded=0;entryX=0.5;entryY=0;entryDx=0;entryDy=0;" edge="1" parent="_YOE5mqV0CH9EQmjLfuh-593">
          <mxGeometry width="50" height="50" relative="1" as="geometry">
            <mxPoint x="9.292741061755128" as="sourcePoint" />
            <mxPoint x="9.568147345612068" y="27.98119525146272" as="targetPoint" />
          </mxGeometry>
        </mxCell>
        <mxCell id="_YOE5mqV0CH9EQmjLfuh-600" value="&lt;font face=&quot;Times New Roman&quot;&gt;&lt;span style=&quot;font-size: 14px;&quot;&gt;52&lt;/span&gt;&lt;/font&gt;" style="text;html=1;strokeColor=none;fillColor=none;align=center;verticalAlign=middle;whiteSpace=wrap;rounded=0;container=0;" vertex="1" parent="_YOE5mqV0CH9EQmjLfuh-593">
          <mxGeometry y="63.20830655798693" width="19.136294691224272" height="18.44015287313559" as="geometry" />
        </mxCell>
        <mxCell id="_YOE5mqV0CH9EQmjLfuh-601" value="" style="rounded=0;whiteSpace=wrap;html=1;rotation=90;container=0;" vertex="1" parent="_YOE5mqV0CH9EQmjLfuh-593">
          <mxGeometry x="8.55536294691229" y="64.36906010078803" width="89.8979414951246" height="18.536882335035674" as="geometry" />
        </mxCell>
        <mxCell id="_YOE5mqV0CH9EQmjLfuh-602" value="&lt;font face=&quot;Times New Roman&quot;&gt;&lt;span style=&quot;font-size: 14px;&quot;&gt;55&lt;/span&gt;&lt;/font&gt;" style="text;html=1;strokeColor=none;fillColor=none;align=center;verticalAlign=middle;whiteSpace=wrap;rounded=0;container=0;" vertex="1" parent="_YOE5mqV0CH9EQmjLfuh-593">
          <mxGeometry x="43.940628385698844" y="28.96607704535461" width="19.136294691224272" height="17.666317177934864" as="geometry" />
        </mxCell>
        <mxCell id="_YOE5mqV0CH9EQmjLfuh-603" value="&lt;font face=&quot;Times New Roman&quot;&gt;&lt;span style=&quot;font-size: 14px;&quot;&gt;57&lt;/span&gt;&lt;/font&gt;" style="text;html=1;strokeColor=none;fillColor=none;align=center;verticalAlign=middle;whiteSpace=wrap;rounded=0;container=0;" vertex="1" parent="_YOE5mqV0CH9EQmjLfuh-593">
          <mxGeometry x="43.940628385698844" y="44.76815368485133" width="19.136294691224272" height="18.44015287313559" as="geometry" />
        </mxCell>
        <mxCell id="_YOE5mqV0CH9EQmjLfuh-604" value="" style="endArrow=classic;html=1;rounded=0;entryX=0.5;entryY=0;entryDx=0;entryDy=0;" edge="1" parent="_YOE5mqV0CH9EQmjLfuh-593">
          <mxGeometry width="50" height="50" relative="1" as="geometry">
            <mxPoint x="53.233369447453974" as="sourcePoint" />
            <mxPoint x="53.50877573131091" y="27.98119525146272" as="targetPoint" />
          </mxGeometry>
        </mxCell>
        <mxCell id="_YOE5mqV0CH9EQmjLfuh-605" value="&lt;font face=&quot;Times New Roman&quot;&gt;&lt;span style=&quot;font-size: 14px;&quot;&gt;59&lt;/span&gt;&lt;/font&gt;" style="text;html=1;strokeColor=none;fillColor=none;align=center;verticalAlign=middle;whiteSpace=wrap;rounded=0;container=0;" vertex="1" parent="_YOE5mqV0CH9EQmjLfuh-593">
          <mxGeometry x="43.940628385698844" y="61.55511211823993" width="19.136294691224272" height="17.58717489092569" as="geometry" />
        </mxCell>
        <mxCell id="_YOE5mqV0CH9EQmjLfuh-606" value="" style="rounded=0;whiteSpace=wrap;html=1;rotation=90;container=0;" vertex="1" parent="_YOE5mqV0CH9EQmjLfuh-593">
          <mxGeometry x="54.343878656554786" y="64.36906010078803" width="89.8979414951246" height="18.536882335035674" as="geometry" />
        </mxCell>
        <mxCell id="_YOE5mqV0CH9EQmjLfuh-607" value="&lt;font style=&quot;font-size: 14px;&quot; face=&quot;Times New Roman&quot;&gt;60&lt;/font&gt;" style="text;html=1;strokeColor=none;fillColor=none;align=center;verticalAlign=middle;whiteSpace=wrap;rounded=0;container=0;" vertex="1" parent="_YOE5mqV0CH9EQmjLfuh-593">
          <mxGeometry x="89.72914409534133" y="28.96607704535461" width="19.136294691224272" height="17.666317177934864" as="geometry" />
        </mxCell>
        <mxCell id="_YOE5mqV0CH9EQmjLfuh-608" value="&lt;font face=&quot;Times New Roman&quot;&gt;&lt;span style=&quot;font-size: 14px;&quot;&gt;61&lt;/span&gt;&lt;/font&gt;" style="text;html=1;strokeColor=none;fillColor=none;align=center;verticalAlign=middle;whiteSpace=wrap;rounded=0;container=0;" vertex="1" parent="_YOE5mqV0CH9EQmjLfuh-593">
          <mxGeometry x="89.72914409534133" y="44.76815368485133" width="19.136294691224272" height="18.44015287313559" as="geometry" />
        </mxCell>
        <mxCell id="_YOE5mqV0CH9EQmjLfuh-609" value="" style="endArrow=classic;html=1;rounded=0;entryX=0.5;entryY=0;entryDx=0;entryDy=0;" edge="1" parent="_YOE5mqV0CH9EQmjLfuh-593">
          <mxGeometry width="50" height="50" relative="1" as="geometry">
            <mxPoint x="99.02188515709646" as="sourcePoint" />
            <mxPoint x="99.2972914409534" y="27.98119525146272" as="targetPoint" />
          </mxGeometry>
        </mxCell>
        <mxCell id="_YOE5mqV0CH9EQmjLfuh-611" value="&lt;font face=&quot;Times New Roman&quot;&gt;&lt;span style=&quot;font-size: 14px;&quot;&gt;62&lt;/span&gt;&lt;/font&gt;" style="text;html=1;strokeColor=none;fillColor=none;align=center;verticalAlign=middle;whiteSpace=wrap;rounded=0;container=0;" vertex="1" parent="_YOE5mqV0CH9EQmjLfuh-593">
          <mxGeometry x="89.72914409534133" y="63.20830655798693" width="19.136294691224272" height="18.44015287313559" as="geometry" />
        </mxCell>
        <mxCell id="_YOE5mqV0CH9EQmjLfuh-639" value="&lt;font face=&quot;Times New Roman&quot;&gt;&lt;span style=&quot;font-size: 14px;&quot;&gt;53&lt;/span&gt;&lt;/font&gt;" style="text;html=1;strokeColor=none;fillColor=none;align=center;verticalAlign=middle;whiteSpace=wrap;rounded=0;container=0;" vertex="1" parent="_YOE5mqV0CH9EQmjLfuh-593">
          <mxGeometry y="81.64845943112256" width="19.136294691224272" height="18.44015287313559" as="geometry" />
        </mxCell>
        <mxCell id="_YOE5mqV0CH9EQmjLfuh-613" style="edgeStyle=orthogonalEdgeStyle;rounded=0;orthogonalLoop=1;jettySize=auto;html=1;" edge="1" parent="_YOE5mqV0CH9EQmjLfuh-615">
          <mxGeometry relative="1" as="geometry">
            <mxPoint x="91.5059588299027" y="69.70048654629436" as="targetPoint" />
            <mxPoint y="69.57486386850206" as="sourcePoint" />
          </mxGeometry>
        </mxCell>
        <mxCell id="_YOE5mqV0CH9EQmjLfuh-616" value="" style="group" vertex="1" connectable="0" parent="_YOE5mqV0CH9EQmjLfuh-642">
          <mxGeometry x="536.5980498374864" y="141.47123482260628" width="200.78006500541713" height="118.52876517739371" as="geometry" />
        </mxCell>
        <mxCell id="_YOE5mqV0CH9EQmjLfuh-617" value="" style="group" vertex="1" connectable="0" parent="_YOE5mqV0CH9EQmjLfuh-616">
          <mxGeometry x="91.91462621885157" width="108.86543878656559" height="118.52876517739371" as="geometry" />
        </mxCell>
        <mxCell id="_YOE5mqV0CH9EQmjLfuh-618" value="" style="endArrow=classic;html=1;rounded=0;entryX=0;entryY=0.75;entryDx=0;entryDy=0;exitX=1;exitY=0.75;exitDx=0;exitDy=0;" edge="1" parent="_YOE5mqV0CH9EQmjLfuh-617">
          <mxGeometry width="50" height="50" relative="1" as="geometry">
            <mxPoint x="19.136294691224187" y="69.1505732742585" as="sourcePoint" />
            <mxPoint x="43.940628385698794" y="69.1505732742584" as="targetPoint" />
          </mxGeometry>
        </mxCell>
        <mxCell id="_YOE5mqV0CH9EQmjLfuh-619" value="" style="endArrow=classic;html=1;rounded=0;entryX=0;entryY=0.75;entryDx=0;entryDy=0;exitX=1;exitY=0.75;exitDx=0;exitDy=0;" edge="1" parent="_YOE5mqV0CH9EQmjLfuh-617">
          <mxGeometry width="50" height="50" relative="1" as="geometry">
            <mxPoint x="63.076923076923016" y="69.40558731017694" as="sourcePoint" />
            <mxPoint x="87.88125677139764" y="69.40558731017686" as="targetPoint" />
          </mxGeometry>
        </mxCell>
        <mxCell id="_YOE5mqV0CH9EQmjLfuh-620" value="" style="rounded=0;whiteSpace=wrap;html=1;rotation=90;container=0;" vertex="1" parent="_YOE5mqV0CH9EQmjLfuh-617">
          <mxGeometry x="-35.385265438786554" y="64.36906010078803" width="89.8979414951246" height="18.536882335035674" as="geometry" />
        </mxCell>
        <mxCell id="_YOE5mqV0CH9EQmjLfuh-621" value="&lt;font style=&quot;font-size: 14px;&quot; face=&quot;Times New Roman&quot;&gt;64&lt;/font&gt;" style="text;html=1;strokeColor=none;fillColor=none;align=center;verticalAlign=middle;whiteSpace=wrap;rounded=0;container=0;" vertex="1" parent="_YOE5mqV0CH9EQmjLfuh-617">
          <mxGeometry y="28.96607704535461" width="19.136294691224272" height="15.001860181959614" as="geometry" />
        </mxCell>
        <mxCell id="_YOE5mqV0CH9EQmjLfuh-622" value="&lt;font style=&quot;font-size: 14px;&quot; face=&quot;Times New Roman&quot;&gt;66&lt;/font&gt;" style="text;html=1;strokeColor=none;fillColor=none;align=center;verticalAlign=middle;whiteSpace=wrap;rounded=0;container=0;" vertex="1" parent="_YOE5mqV0CH9EQmjLfuh-617">
          <mxGeometry y="44.76815368485133" width="19.136294691224272" height="18.44015287313559" as="geometry" />
        </mxCell>
        <mxCell id="_YOE5mqV0CH9EQmjLfuh-623" value="" style="endArrow=classic;html=1;rounded=0;entryX=0.5;entryY=0;entryDx=0;entryDy=0;" edge="1" parent="_YOE5mqV0CH9EQmjLfuh-617">
          <mxGeometry width="50" height="50" relative="1" as="geometry">
            <mxPoint x="9.292741061755128" as="sourcePoint" />
            <mxPoint x="9.568147345612068" y="27.98119525146272" as="targetPoint" />
          </mxGeometry>
        </mxCell>
        <mxCell id="_YOE5mqV0CH9EQmjLfuh-624" value="&lt;font face=&quot;Times New Roman&quot;&gt;&lt;span style=&quot;font-size: 14px;&quot;&gt;68&lt;/span&gt;&lt;/font&gt;" style="text;html=1;strokeColor=none;fillColor=none;align=center;verticalAlign=middle;whiteSpace=wrap;rounded=0;container=0;" vertex="1" parent="_YOE5mqV0CH9EQmjLfuh-617">
          <mxGeometry y="63.20830655798693" width="19.136294691224272" height="18.44015287313559" as="geometry" />
        </mxCell>
        <mxCell id="_YOE5mqV0CH9EQmjLfuh-625" value="" style="rounded=0;whiteSpace=wrap;html=1;rotation=90;container=0;" vertex="1" parent="_YOE5mqV0CH9EQmjLfuh-617">
          <mxGeometry x="8.55536294691229" y="64.36906010078803" width="89.8979414951246" height="18.536882335035674" as="geometry" />
        </mxCell>
        <mxCell id="_YOE5mqV0CH9EQmjLfuh-626" value="&lt;font face=&quot;Times New Roman&quot;&gt;&lt;span style=&quot;font-size: 14px;&quot;&gt;70&lt;/span&gt;&lt;/font&gt;" style="text;html=1;strokeColor=none;fillColor=none;align=center;verticalAlign=middle;whiteSpace=wrap;rounded=0;container=0;" vertex="1" parent="_YOE5mqV0CH9EQmjLfuh-617">
          <mxGeometry x="43.940628385698844" y="28.96607704535461" width="19.136294691224272" height="17.666317177934864" as="geometry" />
        </mxCell>
        <mxCell id="_YOE5mqV0CH9EQmjLfuh-627" value="&lt;font style=&quot;font-size: 14px;&quot; face=&quot;Times New Roman&quot;&gt;73&lt;/font&gt;" style="text;html=1;strokeColor=none;fillColor=none;align=center;verticalAlign=middle;whiteSpace=wrap;rounded=0;container=0;" vertex="1" parent="_YOE5mqV0CH9EQmjLfuh-617">
          <mxGeometry x="43.940628385698844" y="44.76815368485133" width="19.136294691224272" height="18.44015287313559" as="geometry" />
        </mxCell>
        <mxCell id="_YOE5mqV0CH9EQmjLfuh-628" value="" style="endArrow=classic;html=1;rounded=0;entryX=0.5;entryY=0;entryDx=0;entryDy=0;" edge="1" parent="_YOE5mqV0CH9EQmjLfuh-617">
          <mxGeometry width="50" height="50" relative="1" as="geometry">
            <mxPoint x="53.233369447453974" as="sourcePoint" />
            <mxPoint x="53.50877573131091" y="27.98119525146272" as="targetPoint" />
          </mxGeometry>
        </mxCell>
        <mxCell id="_YOE5mqV0CH9EQmjLfuh-629" value="&lt;font face=&quot;Times New Roman&quot;&gt;&lt;span style=&quot;font-size: 14px;&quot;&gt;77&lt;/span&gt;&lt;/font&gt;" style="text;html=1;strokeColor=none;fillColor=none;align=center;verticalAlign=middle;whiteSpace=wrap;rounded=0;container=0;" vertex="1" parent="_YOE5mqV0CH9EQmjLfuh-617">
          <mxGeometry x="43.940628385698844" y="61.55511211823993" width="19.136294691224272" height="17.58717489092569" as="geometry" />
        </mxCell>
        <mxCell id="_YOE5mqV0CH9EQmjLfuh-630" value="" style="rounded=0;whiteSpace=wrap;html=1;rotation=90;container=0;" vertex="1" parent="_YOE5mqV0CH9EQmjLfuh-617">
          <mxGeometry x="54.343878656554786" y="64.36906010078803" width="89.8979414951246" height="18.536882335035674" as="geometry" />
        </mxCell>
        <mxCell id="_YOE5mqV0CH9EQmjLfuh-631" value="&lt;font style=&quot;font-size: 14px;&quot; face=&quot;Times New Roman&quot;&gt;79&lt;/font&gt;" style="text;html=1;strokeColor=none;fillColor=none;align=center;verticalAlign=middle;whiteSpace=wrap;rounded=0;container=0;" vertex="1" parent="_YOE5mqV0CH9EQmjLfuh-617">
          <mxGeometry x="89.72914409534133" y="28.96607704535461" width="19.136294691224272" height="17.666317177934864" as="geometry" />
        </mxCell>
        <mxCell id="_YOE5mqV0CH9EQmjLfuh-632" value="&lt;font style=&quot;font-size: 14px;&quot; face=&quot;Times New Roman&quot;&gt;81&lt;/font&gt;" style="text;html=1;strokeColor=none;fillColor=none;align=center;verticalAlign=middle;whiteSpace=wrap;rounded=0;container=0;" vertex="1" parent="_YOE5mqV0CH9EQmjLfuh-617">
          <mxGeometry x="89.72914409534133" y="44.76815368485133" width="19.136294691224272" height="18.44015287313559" as="geometry" />
        </mxCell>
        <mxCell id="_YOE5mqV0CH9EQmjLfuh-633" value="" style="endArrow=classic;html=1;rounded=0;entryX=0.5;entryY=0;entryDx=0;entryDy=0;" edge="1" parent="_YOE5mqV0CH9EQmjLfuh-617">
          <mxGeometry width="50" height="50" relative="1" as="geometry">
            <mxPoint x="99.02188515709646" as="sourcePoint" />
            <mxPoint x="99.2972914409534" y="27.98119525146272" as="targetPoint" />
          </mxGeometry>
        </mxCell>
        <mxCell id="_YOE5mqV0CH9EQmjLfuh-635" value="&lt;font face=&quot;Times New Roman&quot;&gt;&lt;span style=&quot;font-size: 14px;&quot;&gt;82&lt;/span&gt;&lt;/font&gt;" style="text;html=1;strokeColor=none;fillColor=none;align=center;verticalAlign=middle;whiteSpace=wrap;rounded=0;container=0;" vertex="1" parent="_YOE5mqV0CH9EQmjLfuh-617">
          <mxGeometry x="89.72914409534133" y="63.20830655798693" width="19.136294691224272" height="18.44015287313559" as="geometry" />
        </mxCell>
        <mxCell id="_YOE5mqV0CH9EQmjLfuh-637" style="edgeStyle=orthogonalEdgeStyle;rounded=0;orthogonalLoop=1;jettySize=auto;html=1;" edge="1" parent="_YOE5mqV0CH9EQmjLfuh-616">
          <mxGeometry relative="1" as="geometry">
            <mxPoint x="89.72914409534148" y="69.70048654629436" as="targetPoint" />
            <mxPoint x="-2.6652221018418207" y="69.57486386850206" as="sourcePoint" />
          </mxGeometry>
        </mxCell>
        <mxCell id="_YOE5mqV0CH9EQmjLfuh-401" style="edgeStyle=orthogonalEdgeStyle;rounded=0;orthogonalLoop=1;jettySize=auto;html=1;" edge="1" parent="_YOE5mqV0CH9EQmjLfuh-642">
          <mxGeometry relative="1" as="geometry">
            <mxPoint x="549.0357529794152" y="105.52304934555417" as="targetPoint" />
            <mxPoint x="442.42686890574214" y="26.380762336388543" as="sourcePoint" />
            <Array as="points">
              <mxPoint x="442.42686890574214" y="87.93587445462848" />
              <mxPoint x="549.9241603466954" y="87.93587445462848" />
              <mxPoint x="549.9241603466954" y="105.52304934555417" />
            </Array>
          </mxGeometry>
        </mxCell>
        <mxCell id="_YOE5mqV0CH9EQmjLfuh-402" style="edgeStyle=orthogonalEdgeStyle;rounded=0;orthogonalLoop=1;jettySize=auto;html=1;" edge="1" parent="_YOE5mqV0CH9EQmjLfuh-642">
          <mxGeometry relative="1" as="geometry">
            <mxPoint x="709.8374864572049" y="105.52304934555417" as="targetPoint" />
            <mxPoint x="487.73564463705304" y="26.380762336388543" as="sourcePoint" />
            <Array as="points">
              <mxPoint x="487.73564463705304" y="70.34869956370277" />
              <mxPoint x="709.8374864572047" y="70.34869956370277" />
            </Array>
          </mxGeometry>
        </mxCell>
        <mxCell id="_YOE5mqV0CH9EQmjLfuh-641" value="" style="group" vertex="1" connectable="0" parent="_YOE5mqV0CH9EQmjLfuh-642">
          <mxGeometry x="349.1440953412785" width="186.5655471289274" height="35.94443656157109" as="geometry" />
        </mxCell>
        <mxCell id="_YOE5mqV0CH9EQmjLfuh-343" value="&lt;font face=&quot;Times New Roman&quot; style=&quot;font-size: 20px;&quot;&gt;34&lt;/font&gt;" style="shape=partialRectangle;whiteSpace=wrap;html=1;top=0;bottom=0;fillColor=none;container=0;" vertex="1" parent="_YOE5mqV0CH9EQmjLfuh-641">
          <mxGeometry x="8.884073672806068" y="0.38691784760036335" width="35.53629469122427" height="35.17434978185138" as="geometry" />
        </mxCell>
        <mxCell id="_YOE5mqV0CH9EQmjLfuh-344" value="&lt;font style=&quot;font-size: 20px;&quot; face=&quot;Times New Roman&quot;&gt;48&lt;/font&gt;" style="shape=partialRectangle;whiteSpace=wrap;html=1;top=0;bottom=0;fillColor=none;container=0;" vertex="1" parent="_YOE5mqV0CH9EQmjLfuh-641">
          <mxGeometry x="53.30444203683641" y="0.38691784760036335" width="35.53629469122427" height="35.17434978185138" as="geometry" />
        </mxCell>
        <mxCell id="_YOE5mqV0CH9EQmjLfuh-345" value="&lt;font face=&quot;Times New Roman&quot; style=&quot;font-size: 20px;&quot;&gt;62&lt;/font&gt;" style="shape=partialRectangle;whiteSpace=wrap;html=1;top=0;bottom=0;fillColor=none;container=0;" vertex="1" parent="_YOE5mqV0CH9EQmjLfuh-641">
          <mxGeometry x="98.61321776814732" y="0.38691784760036335" width="35.53629469122427" height="35.17434978185138" as="geometry" />
        </mxCell>
        <mxCell id="_YOE5mqV0CH9EQmjLfuh-346" value="" style="shape=partialRectangle;whiteSpace=wrap;html=1;top=0;bottom=0;fillColor=none;container=0;" vertex="1" parent="_YOE5mqV0CH9EQmjLfuh-641">
          <mxGeometry x="142.14517876489703" y="0.38691784760036335" width="35.53629469122427" height="35.17434978185138" as="geometry" />
        </mxCell>
        <mxCell id="_YOE5mqV0CH9EQmjLfuh-348" value="" style="endArrow=none;html=1;rounded=0;exitX=0;exitY=0;exitDx=0;exitDy=0;entryX=1;entryY=0;entryDx=0;entryDy=0;" edge="1" parent="_YOE5mqV0CH9EQmjLfuh-641">
          <mxGeometry width="50" height="50" relative="1" as="geometry">
            <mxPoint y="0.38691784760036335" as="sourcePoint" />
            <mxPoint x="186.5655471289274" y="0.38691784760036335" as="targetPoint" />
          </mxGeometry>
        </mxCell>
        <mxCell id="_YOE5mqV0CH9EQmjLfuh-352" value="" style="endArrow=none;html=1;rounded=0;exitX=0;exitY=1;exitDx=0;exitDy=0;" edge="1" parent="_YOE5mqV0CH9EQmjLfuh-641">
          <mxGeometry width="50" height="50" relative="1" as="geometry">
            <mxPoint y="35.56126762945176" as="sourcePoint" />
            <mxPoint x="186.5655471289274" y="35.56126762945176" as="targetPoint" />
          </mxGeometry>
        </mxCell>
        <mxCell id="_YOE5mqV0CH9EQmjLfuh-353" value="" style="endArrow=none;html=1;rounded=0;" edge="1" parent="_YOE5mqV0CH9EQmjLfuh-641">
          <mxGeometry width="50" height="50" relative="1" as="geometry">
            <mxPoint y="0.38691784760036335" as="sourcePoint" />
            <mxPoint y="35.94443656157109" as="targetPoint" />
          </mxGeometry>
        </mxCell>
        <mxCell id="_YOE5mqV0CH9EQmjLfuh-354" value="" style="endArrow=none;html=1;rounded=0;" edge="1" parent="_YOE5mqV0CH9EQmjLfuh-641">
          <mxGeometry width="50" height="50" relative="1" as="geometry">
            <mxPoint x="186.5655471289274" as="sourcePoint" />
            <mxPoint x="186.5655471289274" y="35.55751871397071" as="targetPoint" />
          </mxGeometry>
        </mxCell>
      </root>
    </mxGraphModel>
  </diagram>
</mxfile>
